<svg width="24" height="41" viewBox="0 0 24 41" fill="none" xmlns="http://www.w3.org/2000/svg">
<path d="M22.7116 38.327C23.4109 37.5799 24 36.5264 24 35.0789C24 31.4926 20.0236 27.388 18.5455 23.9167C17.0913 20.5 16.2502 17.2257 18.4549 16.2998L18.6404 16.2166C19.2709 15.9684 19.6364 15.6814 19.6364 15.375C19.6364 14.8511 18.5782 14.3819 16.9156 14.0687C18.5782 12.6064 19.6364 10.4197 19.6364 7.97222C19.6364 3.56928 16.2175 0 12 0C7.78255 0 4.36364 3.56928 4.36364 7.97222C4.36364 10.4197 5.42182 12.6064 7.08436 14.0687C5.42182 14.3819 4.36364 14.8511 4.36364 15.375C4.36364 15.6814 4.72909 15.9684 5.36073 16.2166C5.42182 16.244 5.47636 16.2713 5.54509 16.2998C7.74982 17.2257 6.90873 20.5 5.45455 23.9167C3.97636 27.388 0 31.4926 0 35.0789C0 36.5264 0.589091 37.5799 1.28836 38.327C0.471272 38.7883 0 39.3087 0 39.8611C0 40.2609 0.254182 40.6435 0.697091 41H23.3018C23.7458 40.6435 24 40.2609 24 39.8611C24 39.3087 23.5287 38.7883 22.7116 38.327Z" fill="#E42A2A" fill-opacity="0.76"/>
<path d="M16.3649 5.40969C16.0649 5.40969 15.7758 5.23658 15.6318 4.93706C15.5991 4.871 14.6871 3.13192 12.0001 3.13192C9.31324 3.13192 8.40233 4.871 8.36414 4.94617C8.15469 5.36072 7.6616 5.52586 7.26451 5.31061C6.86524 5.0965 6.70378 4.59197 6.90451 4.17286C6.95796 4.06125 8.26487 1.42358 12.0001 1.42358C15.7354 1.42358 17.0412 4.06125 17.0958 4.174C17.2987 4.59653 17.134 5.10903 16.7292 5.31972C16.6125 5.38122 16.4871 5.40969 16.3649 5.40969ZM16.3638 15.9444C16.282 15.9444 16.1991 15.9251 16.1194 15.8841C16.1151 15.8829 15.0416 15.375 12.0001 15.375C8.9576 15.375 7.88524 15.8829 7.87433 15.8875C7.60487 16.0207 7.27869 15.9023 7.14887 15.621C7.01905 15.3408 7.12596 15.0048 7.39324 14.8648C7.51651 14.801 8.6936 14.2361 12.0001 14.2361C15.3056 14.2361 16.4838 14.801 16.6081 14.8659C16.8776 15.0071 16.9867 15.3488 16.8525 15.6301C16.7554 15.8294 16.5634 15.9444 16.3638 15.9444ZM3.27287 39.2916C2.99578 39.2916 2.75905 39.073 2.73069 38.7791C2.70124 38.4671 2.91942 38.1869 3.21942 38.1562C3.27287 38.1493 8.73833 37.5833 12.0001 37.5833C15.262 37.5833 20.7263 38.1493 20.782 38.1562C21.0809 38.1869 21.3012 38.4659 21.2696 38.7791C21.2401 39.0912 20.9696 39.3247 20.6729 39.2882C20.6183 39.2825 15.2074 38.7222 12.0001 38.7222C8.79178 38.7222 3.38196 39.2825 3.32742 39.2882L3.27287 39.2916Z" fill="#F3AAAA" fill-opacity="0.64"/>
</svg>
