<svg width="300" height="138" viewBox="0 0 300 138" fill="none" xmlns="http://www.w3.org/2000/svg">
<path fill-rule="evenodd" clip-rule="evenodd" d="M48.75 85.4661C48.6595 86.0458 48.439 86.5975 48.105 87.08C47.771 87.5624 47.3322 87.963 46.8214 88.2518C45.7929 88.9161 44.8929 89.2482 43.9821 89.5804C42.0429 90.25 40.0018 90.9196 37.8429 91.6964C35.5661 92.4732 33.525 93.25 31.7036 93.8125C29.4321 94.5893 27.2732 95.2589 25.2214 96.0357C23.6778 96.6963 22.2278 97.5573 20.9089 98.5964C19.6823 99.7077 18.6119 100.98 17.7268 102.379C16.8161 103.932 16.2429 105.936 16.2429 108.271C16.2429 112.948 17.3786 116.505 19.6554 118.729C21.9268 121.07 26.1375 122.179 32.3786 122.179C38.7429 122.179 43.0607 120.957 45.3429 118.509C47.6089 116.061 48.7446 112.616 48.7446 108.17V85.4661H48.75ZM32.3839 36.1804C43.5268 36.1804 51.7071 38.2964 56.9304 42.6357C62.1589 46.8679 64.7732 52.3107 64.7732 58.7607V113.725C64.7732 115.948 64.3232 118.396 63.5304 121.064C62.7268 123.743 61.1411 126.186 58.6393 128.404C56.2554 130.638 52.9607 132.529 48.7554 133.975C44.55 135.421 39.0964 136.198 32.3893 136.198C25.6929 136.198 20.2286 135.421 16.0286 133.975C11.8286 132.529 8.52857 130.638 6.14464 128.404C3.92695 126.405 2.24695 123.881 1.25893 121.064C0.455357 118.402 0 115.954 0 113.73V104.945C0 100.268 1.24821 95.9286 3.75 92.1411C6.25179 88.2518 9.77143 85.5839 14.3196 83.9125C16.5911 83.1357 19.2054 82.3589 22.1571 81.3571C25.1143 80.35 27.8357 79.3482 30.5679 78.4643C33.3 77.5696 35.6839 76.675 37.725 75.8929C38.9567 75.4 40.2077 74.9568 41.475 74.5643L43.5214 73.5625C44.325 73.1179 45.1125 72.4482 45.9107 71.5589C46.7036 70.675 47.3839 69.6732 47.9571 68.5589C48.5628 67.3523 48.8748 66.0197 48.8679 64.6696V61.1071C48.8762 59.8015 48.6021 58.5094 48.0643 57.3197C47.6143 55.9804 46.7036 54.7589 45.4554 53.65C44.2071 52.5357 42.4982 51.6464 40.4571 50.9714C38.4107 50.3125 35.6893 49.975 32.6143 49.975C26.25 49.975 22.0446 51.2072 19.7732 53.7572C17.8446 55.9857 16.7089 58.7661 16.4839 61.8786C16.4839 62.5482 15.9161 62.9929 15.2304 62.9929L1.37143 63.2179C1.04222 63.2193 0.725774 63.0906 0.490989 62.8599C0.256203 62.6291 0.122093 62.3149 0.117857 61.9857V58.7714C0.117857 55.6482 0.691071 52.7554 1.93929 49.975C3.19286 47.1893 5.12679 44.8589 7.73571 42.85C10.35 40.8518 13.7625 39.1857 17.85 38.0714C21.8304 36.7321 26.7161 36.1804 32.3946 36.1804H32.3839ZM283.634 85.4661C283.543 86.0458 283.323 86.5975 282.989 87.08C282.655 87.5624 282.216 87.963 281.705 88.2518C280.687 88.9161 279.777 89.2482 278.866 89.5804C276.938 90.25 274.886 90.9196 272.727 91.6964C270.45 92.4732 268.404 93.25 266.588 93.8125C264.311 94.5893 262.152 95.2589 260.105 96.0357C258.56 96.6959 257.108 97.5568 255.788 98.5964C254.563 99.7081 253.494 100.98 252.611 102.379C251.7 103.932 251.132 105.936 251.132 108.271C251.132 112.948 252.257 116.505 254.534 118.729C256.805 121.07 261.016 122.179 267.263 122.179C273.638 122.179 277.95 120.957 280.227 118.509C282.493 116.061 283.629 112.616 283.629 108.17L283.634 85.4661ZM267.273 36.1804C278.416 36.1804 286.596 38.2964 291.825 42.6357C297.048 46.8679 299.663 52.3107 299.663 58.7607V113.725C299.663 115.948 299.212 118.396 298.414 121.064C297.621 123.743 296.03 126.186 293.529 128.404C291.145 130.638 287.85 132.529 283.645 133.975C279.445 135.421 273.986 136.198 267.284 136.198C260.588 136.198 255.123 135.421 250.923 133.975C246.723 132.529 243.423 130.638 241.039 128.404C238.825 126.404 237.149 123.88 236.164 121.064C235.361 118.396 234.905 115.948 234.905 113.725V104.939C234.905 100.263 236.159 95.9232 238.655 92.1357C241.157 88.2464 244.682 85.5786 249.225 83.9071C251.496 83.1304 254.111 82.3536 257.068 81.3518C260.014 80.3447 262.746 79.3429 265.479 78.4589C268.211 77.5643 270.589 76.6696 272.636 75.8875C273.867 75.3947 275.118 74.9515 276.386 74.5589L278.432 73.5571C279.225 73.1125 280.023 72.4429 280.816 71.5536C281.629 70.6495 282.317 69.6405 282.862 68.5536C283.468 67.347 283.78 66.0143 283.773 64.6643V61.1018C283.782 59.7961 283.507 58.5041 282.97 57.3143C282.52 55.975 281.614 54.7536 280.361 53.6446C279.113 52.5304 277.414 51.6411 275.363 50.9661C273.316 50.3071 270.595 49.9696 267.52 49.9696C261.155 49.9696 256.955 51.2018 254.679 53.7518C252.75 55.9804 251.614 58.7607 251.384 61.8732C251.384 62.5429 250.821 62.9875 250.141 62.9875H236.357C236.032 62.9862 235.719 62.8577 235.487 62.6296C235.255 62.4014 235.121 62.0915 235.114 61.7661V58.5357C235.114 55.4286 235.682 52.5357 236.936 49.75C238.184 46.975 240.112 44.6339 242.721 42.6357C245.346 40.6321 248.748 38.9607 252.846 37.8518C256.704 36.7268 261.589 36.1804 267.273 36.1804ZM218.523 36.625H227.62C228.412 36.625 228.98 37.4071 228.755 38.1786L225.686 49.75C225.579 50.3125 225.005 50.6446 224.55 50.6446H218.186C214.779 50.6446 212.052 51.0893 209.893 51.9839C207.841 52.8679 206.143 53.8696 205.002 55.0911C203.866 56.3232 203.18 57.5393 202.843 58.7661C202.537 59.9652 202.384 61.1982 202.387 62.4357V133.975C202.38 134.303 202.244 134.616 202.009 134.844C201.773 135.073 201.457 135.199 201.129 135.196H187.5C187.174 135.197 186.86 135.069 186.627 134.84C186.393 134.612 186.259 134.301 186.252 133.975V59.2054C186.252 57.8768 186.477 55.8732 187.045 53.3125C187.5 50.7571 188.866 48.3089 191.025 45.7482C193.184 43.3 196.366 41.0768 200.684 39.2982C205.007 37.5089 210.916 36.625 218.523 36.625ZM172.613 111.277V114.614C172.613 116.061 172.398 118.064 171.825 120.625C171.37 123.068 170.004 125.629 167.845 128.071C165.686 130.525 162.504 132.748 158.186 134.527C153.868 136.311 147.954 137.205 140.346 137.205C132.739 137.205 126.825 136.311 122.507 134.527C118.189 132.748 115.007 130.638 112.848 128.077C110.689 125.634 109.323 123.073 108.868 120.523C108.418 117.952 108.08 116.066 108.08 114.62V39.7429C108.08 39.0732 108.648 38.5107 109.329 38.5107H122.85C123.536 38.5107 124.104 39.0732 124.104 39.7429V109.83C124.104 112.166 124.441 113.838 124.784 115.171C125.132 116.511 125.813 117.839 126.836 118.954C127.854 120.175 129.45 121.177 131.604 121.954C133.65 122.736 136.495 123.186 140.014 123.186C143.657 123.186 146.604 122.736 148.768 121.954C150.927 121.177 152.518 120.175 153.654 119.061C154.779 117.952 155.582 116.73 155.92 115.391C156.262 114.052 156.723 112.948 156.723 109.713V39.6357C156.723 38.9714 157.286 38.4143 157.966 38.4143H171.488C172.163 38.4143 172.73 38.9714 172.73 39.6464V111.288H172.623L172.613 111.277ZM79.5536 0.919648H93.0804C93.7607 0.919648 94.3286 1.47143 94.3286 2.13572V134.639C94.3243 134.968 94.191 135.281 93.9573 135.512C93.7237 135.742 93.4086 135.871 93.0804 135.871H79.5536C79.2253 135.871 78.9102 135.742 78.6766 135.512C78.443 135.281 78.3096 134.968 78.3054 134.639V2.13572C78.4125 1.47143 78.8732 0.919648 79.5536 0.919648Z" fill="#02061A" fill-opacity="0.86"/>
</svg>
