<svg width="355" height="340" viewBox="0 0 355 340" fill="none" xmlns="http://www.w3.org/2000/svg">
<path d="M216.71 318.684L177.59 242.981L146.652 205.129C142.075 197.708 139.666 189.244 139.677 180.625V95.386H150.459C157.815 95.386 164.869 98.1845 170.07 103.166C175.271 108.147 178.193 114.904 178.193 121.948V242.947" fill="#E85858"/>
<path d="M216.71 318.684L177.59 242.981L146.652 205.129C142.075 197.708 139.666 189.244 139.677 180.625V95.386H150.459C157.815 95.386 164.869 98.1845 170.07 103.166C175.271 108.147 178.193 114.904 178.193 121.948V242.947" stroke="#E85858" stroke-width="32" stroke-linecap="round" stroke-linejoin="round"/>
<path d="M94 193.374V144.187C94 144.187 119.654 95 145.357 95" stroke="#E85858" stroke-width="32" stroke-linecap="round" stroke-linejoin="round"/>
<path d="M262.034 195.291C259.266 195.29 256.561 194.553 254.259 193.172L208.697 166.827C206.443 165.52 204.589 163.726 203.305 161.609C202.021 159.491 201.348 157.119 201.346 154.707V138.561C201.345 137.87 201.551 137.192 201.942 136.598C202.333 136.003 202.894 135.514 203.568 135.182C204.241 134.849 205.001 134.686 205.769 134.709C206.537 134.732 207.284 134.94 207.931 135.311L269.8 172.175C272.308 173.678 274.21 175.866 275.227 178.416C276.244 180.966 276.32 183.743 275.446 186.335C274.572 188.928 272.792 191.198 270.371 192.811C267.95 194.424 265.016 195.293 262.003 195.291H262.034ZM113.381 332.697C111.2 332.699 109.049 332.244 107.098 331.368C105.147 330.491 103.451 329.218 102.143 327.648C97.491 322.076 99.1125 315.944 104.947 309.99L150.373 259.126C150.999 258.705 151.715 258.406 152.477 258.248C153.238 258.09 154.027 258.076 154.795 258.209C155.562 258.341 156.291 258.615 156.933 259.015C157.576 259.415 158.119 259.93 158.527 260.529C159.709 262.26 161.088 264.379 162.459 266.722C166.43 273.501 167.006 277.697 161.186 284.231C155.124 291.044 121.784 330.176 121.784 330.176C119.799 332.206 116.306 332.697 113.381 332.697Z" fill="#E85858"/>
<path d="M178.193 70.7891C192.377 70.7891 203.875 59.7767 203.875 46.1922C203.875 32.6077 192.377 21.5953 178.193 21.5953C164.009 21.5953 152.511 32.6077 152.511 46.1922C152.511 59.7767 164.009 70.7891 178.193 70.7891Z" fill="#E85858" stroke="#E85858" stroke-width="16" stroke-linecap="round" stroke-linejoin="round"/>
</svg>
