<svg width="512" height="512" viewBox="0 0 512 512" fill="none" xmlns="http://www.w3.org/2000/svg">
<path d="M258.9 47.9998C141.92 46.4198 46.42 141.92 48 258.9C49.56 371.09 140.91 462.44 253.1 464C370.1 465.6 465.58 370.1 463.98 253.12C462.44 140.91 371.09 49.5598 258.9 47.9998ZM385.32 375.25C384.922 375.681 384.433 376.018 383.89 376.239C383.346 376.46 382.761 376.559 382.175 376.529C381.589 376.498 381.017 376.339 380.499 376.063C379.982 375.786 379.531 375.4 379.18 374.93C370.236 363.227 359.282 353.208 346.83 345.34C321.37 329 289.11 320 256 320C222.89 320 190.63 329 165.17 345.34C152.719 353.205 141.765 363.22 132.82 374.92C132.469 375.39 132.018 375.776 131.501 376.053C130.983 376.329 130.411 376.488 129.825 376.519C129.239 376.549 128.654 376.45 128.11 376.229C127.567 376.008 127.078 375.671 126.68 375.24C97.3368 343.563 80.715 302.173 80 259C78.37 161.69 158.22 80.2398 255.57 79.9998C352.92 79.7598 432 158.81 432 256C432.034 300.214 415.36 342.808 385.32 375.25Z" fill="#E13F3F" fill-opacity="0.33"/>
<path d="M256 144C236.28 144 218.45 151.39 205.78 164.82C193.11 178.25 186.78 196.82 188.21 216.75C191.11 256 221.52 288 256 288C290.48 288 320.83 256 323.79 216.76C325.27 197.02 318.99 178.62 306.11 164.94C293.39 151.44 275.59 144 256 144Z" fill="#E13F3F" fill-opacity="0.33"/>
</svg>
