<svg width="85" height="70" viewBox="0 0 85 70" fill="none" xmlns="http://www.w3.org/2000/svg">
<g clip-path="url(#clip0_66824_72)">
<path d="M74.7552 15.3125H23.5742C17.9297 15.3125 13.2812 19.0736 13.2812 23.6975V57.24C13.2812 61.8639 17.9297 65.625 23.5742 65.625H74.707C80.3516 65.625 85 62.0457 85 57.4219V23.6975C85 19.0736 80.4047 15.3125 74.7552 15.3125ZM61.9471 23.6988C63.4555 23.7064 64.9273 24.0817 66.1771 24.7773C67.4268 25.4729 68.3984 26.4578 68.9692 27.6076C69.5401 28.7574 69.6847 30.0207 69.3849 31.2381C69.085 32.4555 68.354 33.5726 67.2841 34.4483C66.2143 35.324 64.8535 35.9192 63.3734 36.1588C61.8933 36.3983 60.3602 36.2716 58.9675 35.7945C57.5748 35.3174 56.3848 34.5113 55.5477 33.4779C54.7106 32.4445 54.2639 31.2301 54.2639 29.9879C54.2718 28.3152 55.0852 26.7134 56.5257 25.534C57.9661 24.3547 59.9159 23.6942 61.9471 23.6975V23.6988ZM23.5062 61.4332C20.6839 61.4332 18.5489 59.5533 18.5489 57.2414V48.3779L33.5667 37.3324C35.0348 36.2689 36.938 35.7033 38.8925 35.7498C40.847 35.7962 42.7075 36.4512 44.0987 37.5826L54.4979 46.0742L35.7382 61.4318L23.5062 61.4332ZM79.6875 57.24C79.6873 57.791 79.5552 58.3366 79.2988 58.8455C79.0424 59.3545 78.6667 59.8168 78.1932 60.2061C77.7198 60.5954 77.1577 60.904 76.5393 61.1144C75.9209 61.3247 75.2582 61.4326 74.5892 61.4318H42.998L62.4352 45.5273C63.8145 44.5691 65.5597 44.0416 67.3643 44.0376C69.1689 44.0336 70.9175 44.5533 72.3031 45.5055L79.6875 50.6666V57.24Z" fill="#E42A2A" fill-opacity="0.83"/>
<path d="M63.75 4.375H10.625C7.80707 4.375 5.10456 5.29687 3.11199 6.93782C1.11942 8.57876 0 10.8044 0 13.125L0 48.125C0.00194324 50.0649 0.785319 51.9495 2.22738 53.4835C3.66944 55.0174 5.6887 56.1141 7.96875 56.6016V20.7812C7.96875 18.1705 9.22809 15.6667 11.4697 13.8207C13.7114 11.9746 16.7517 10.9375 19.9219 10.9375H74.043C73.451 9.05981 72.1194 7.39689 70.2567 6.20931C68.3941 5.02173 66.1056 4.3766 63.75 4.375Z" fill="#E42A2A" fill-opacity="0.83"/>
</g>
<defs>
<clipPath id="clip0_66824_72">
<rect width="85" height="70" fill="white"/>
</clipPath>
</defs>
</svg>
