<svg width="512" height="512" viewBox="0 0 512 512" fill="none" xmlns="http://www.w3.org/2000/svg">
<path d="M194.82 496C192.139 496.002 189.49 495.418 187.06 494.287C184.629 493.156 182.476 491.507 180.751 489.455C179.026 487.403 177.771 484.998 177.074 482.409C176.378 479.82 176.257 477.111 176.72 474.47V474.36L204.83 320H96C92.9792 320 90.0202 319.144 87.4653 317.533C84.9103 315.921 82.8639 313.619 81.5625 310.893C80.2612 308.167 79.7582 305.128 80.1116 302.128C80.4651 299.128 81.6607 296.289 83.56 293.94L302.73 23C305.225 19.8332 308.688 17.5707 312.59 16.5584C316.492 15.5462 320.619 15.8398 324.338 17.3945C328.058 18.9493 331.166 21.6794 333.187 25.1676C335.208 28.6557 336.031 32.7099 335.53 36.71C335.53 37.01 335.45 37.3 335.4 37.6L307.19 192H416C419.021 192 421.98 192.856 424.535 194.467C427.09 196.079 429.136 198.381 430.438 201.107C431.739 203.833 432.242 206.872 431.888 209.872C431.535 212.872 430.339 215.711 428.44 218.06L209.24 489C207.518 491.176 205.327 492.936 202.83 494.148C200.333 495.36 197.595 495.993 194.82 496Z" fill="#B03232" fill-opacity="0.96"/>
</svg>
