<svg width="220" height="220" viewBox="0 0 220 220" fill="none" xmlns="http://www.w3.org/2000/svg">
<path d="M178.058 41.9418C169.137 32.9319 158.523 25.7736 146.826 20.8782C135.13 15.9827 122.581 13.4465 109.902 13.4153C97.2223 13.3841 84.6615 15.8585 72.9411 20.6963C61.2208 25.5342 50.5718 32.6401 41.6059 41.6059C32.6401 50.5718 25.5342 61.2208 20.6963 72.9411C15.8585 84.6615 13.3841 97.2223 13.4153 109.902C13.4465 122.581 15.9827 135.13 20.8782 146.826C25.7736 158.523 32.9319 169.137 41.9418 178.058C50.8634 187.068 61.4773 194.226 73.1737 199.122C84.8701 204.017 97.4186 206.554 110.098 206.585C122.778 206.616 135.338 204.142 147.059 199.304C158.779 194.466 169.428 187.36 178.394 178.394C187.36 169.428 194.466 158.779 199.304 147.059C204.142 135.338 206.616 122.778 206.585 110.098C206.554 97.4186 204.017 84.8701 199.122 73.1737C194.226 61.4773 187.068 50.8634 178.058 41.9418ZM79.0625 89.375C81.1021 89.375 83.0959 89.9798 84.7918 91.113C86.4877 92.2461 87.8095 93.8567 88.59 95.7411C89.3705 97.6254 89.5747 99.6989 89.1768 101.699C88.7789 103.7 87.7968 105.537 86.3545 106.98C84.9123 108.422 83.0748 109.404 81.0744 109.802C79.0739 110.2 77.0004 109.996 75.1161 109.215C73.2317 108.434 71.6211 107.113 70.488 105.417C69.3548 103.721 68.75 101.727 68.75 99.6875C68.7466 98.3323 69.011 96.9898 69.5281 95.737C70.0451 94.4843 70.8046 93.3462 71.7629 92.3879C72.7212 91.4296 73.8593 90.6701 75.112 90.1531C76.3648 89.636 77.7073 89.3716 79.0625 89.375ZM151.108 134.995C145.952 152.311 129.538 165 110.021 165C90.5051 165 74.091 152.311 68.8918 134.995C68.7464 134.479 68.7235 133.937 68.8251 133.411C68.9266 132.885 69.1497 132.39 69.4765 131.965C69.8034 131.54 70.2249 131.198 70.7076 130.966C71.1902 130.733 71.7205 130.616 72.2562 130.625H147.748C148.283 130.617 148.813 130.734 149.295 130.967C149.777 131.2 150.198 131.542 150.525 131.967C150.851 132.391 151.074 132.886 151.175 133.412C151.276 133.937 151.253 134.48 151.108 134.995ZM140.937 110C138.898 110 136.904 109.395 135.208 108.262C133.512 107.129 132.191 105.518 131.41 103.634C130.629 101.75 130.425 99.676 130.823 97.6756C131.221 95.6752 132.203 93.8377 133.645 92.3955C135.088 90.9532 136.925 89.9711 138.926 89.5731C140.926 89.1752 143 89.3795 144.884 90.16C146.768 90.9405 148.379 92.2623 149.512 93.9582C150.645 95.6541 151.25 97.6479 151.25 99.6875C151.253 101.043 150.989 102.385 150.472 103.638C149.955 104.891 149.195 106.029 148.237 106.987C147.279 107.945 146.141 108.705 144.888 109.222C143.635 109.739 142.293 110.003 140.937 110Z" fill="#eb7373"/>
</svg>
