<svg width="24" height="20" viewBox="0 0 210 210" fill="none" xmlns="http://www.w3.org/2000/svg">
<path d="M182.371 177.541L148.218 88.4747C147.588 86.8299 146.518 85.4237 145.144 84.4342C143.77 83.4447 142.155 82.9165 140.502 82.9165C138.849 82.9165 137.233 83.4447 135.86 84.4342C134.486 85.4237 133.416 86.8299 132.785 88.4747L98.6324 177.541C98.2078 178.633 97.9877 179.805 97.9849 180.989C97.9822 182.173 98.1967 183.346 98.6163 184.441C99.0359 185.535 99.6522 186.53 100.43 187.367C101.207 188.204 102.131 188.868 103.148 189.32C104.164 189.772 105.254 190.003 106.353 190C107.453 189.997 108.542 189.76 109.556 189.303C110.571 188.846 111.491 188.178 112.265 187.336C113.039 186.495 113.651 185.497 114.066 184.401L121.021 166.265H159.982L166.938 184.401C167.569 186.046 168.639 187.453 170.013 188.443C171.387 189.433 173.003 189.961 174.657 189.961C176.028 189.96 177.379 189.595 178.589 188.899C179.798 188.202 180.83 187.196 181.592 185.968C182.355 184.74 182.824 183.329 182.959 181.859C183.095 180.389 182.891 178.906 182.367 177.541H182.371ZM127.917 148.288L140.504 115.46L153.091 148.288H127.917ZM102.495 140.493C103.792 138.564 104.326 136.16 103.978 133.808C103.63 131.456 102.429 129.349 100.64 127.95C100.564 127.889 94.9477 123.403 86.7928 113.761C101.839 91.829 110.362 66.8782 113.838 55.1362H126.084C128.298 55.1362 130.421 54.1892 131.987 52.5036C133.553 50.8179 134.432 48.5317 134.432 46.1479C134.432 43.764 133.553 41.4778 131.987 39.7922C130.421 38.1065 128.298 37.1595 126.084 37.1595H82.0645V28.9883C82.0645 26.6045 81.185 24.3183 79.6193 22.6326C78.0537 20.947 75.9302 20 73.7161 20C71.5019 20 69.3785 20.947 67.8128 22.6326C66.2472 24.3183 65.3676 26.6045 65.3676 28.9883V37.1595H21.3485C19.1343 37.1595 17.0108 38.1065 15.4452 39.7922C13.8796 41.4778 13 43.764 13 46.1479C13 48.5317 13.8796 50.8179 15.4452 52.5036C17.0108 54.1892 19.1343 55.1362 21.3485 55.1362H96.2C92.5874 66.1469 85.9352 83.5311 75.788 99.4078C63.8687 82.379 59.4402 71.3601 59.4061 71.2702C58.5335 69.0991 56.901 67.3859 54.8628 66.5021C52.8246 65.6184 50.545 65.6354 48.5184 66.5495C46.4918 67.4636 44.8815 69.201 44.037 71.385C43.1924 73.5689 43.1816 76.0233 44.0069 78.2158C44.227 78.7796 49.5283 92.2008 64.066 112.506C64.4151 112.992 64.7605 113.466 65.1058 113.94C50.2152 132.06 35.6054 143.299 29.492 146.927C27.5481 148.069 26.105 149.995 25.4801 152.282C24.8553 154.569 25.0999 157.03 26.1602 159.123C27.2205 161.216 29.0096 162.77 31.1338 163.442C33.2581 164.115 35.5436 163.852 37.4876 162.71C38.3072 162.228 55.9301 151.724 76.0536 127.741C84.5994 137.58 90.4737 142.221 90.8266 142.49C91.7146 143.185 92.721 143.684 93.7883 143.959C94.8556 144.234 95.9628 144.28 97.0466 144.094C98.1304 143.908 99.1695 143.494 100.105 142.876C101.039 142.257 101.852 141.446 102.495 140.489V140.493Z" fill="#d95555"/>
</svg>
