<svg width="62" height="51" viewBox="0 0 62 51" fill="none" xmlns="http://www.w3.org/2000/svg">
<path d="M24.07 3.24997C19.4126 1.09372 12.9029 0.0374691 4.18751 -3.0884e-05C3.36556 -0.0108595 2.55974 0.221555 1.87751 0.666219C1.31752 1.03326 0.859128 1.5281 0.542643 2.10724C0.226157 2.68637 0.0612775 3.33205 0.0625068 3.98747V39.75C0.0625068 42.1675 1.83626 43.9912 4.18751 43.9912C13.3489 43.9912 22.5386 44.8212 28.0429 49.8662C28.1182 49.9355 28.2128 49.9819 28.3151 49.9995C28.4173 50.0171 28.5226 50.0052 28.6179 49.9652C28.7132 49.9253 28.7943 49.8591 28.8512 49.7748C28.908 49.6905 28.938 49.5919 28.9375 49.4912V7.35247C28.9377 7.06816 28.875 6.78712 28.7536 6.52835C28.6322 6.26957 28.4549 6.03908 28.2337 5.85247C26.9729 4.80726 25.5723 3.93186 24.07 3.24997ZM60.1225 0.662469C59.4399 0.218911 58.6341 -0.0122053 57.8125 -3.0884e-05C49.0972 0.0374691 42.5874 1.08872 37.93 3.24997C36.4278 3.93062 35.0269 4.8043 33.765 5.84747C33.5444 6.03441 33.3675 6.26499 33.2463 6.52371C33.1251 6.78244 33.0625 7.06331 33.0625 7.34747V49.4887C33.0624 49.5855 33.0918 49.6801 33.147 49.7607C33.2022 49.8413 33.2807 49.9043 33.3727 49.9418C33.4646 49.9794 33.566 49.9897 33.664 49.9716C33.762 49.9535 33.8523 49.9077 33.9236 49.84C37.2326 46.6525 43.0399 43.9875 57.8177 43.9887C58.9117 43.9887 59.9609 43.5673 60.7345 42.8171C61.5081 42.067 61.9427 41.0496 61.9427 39.9887V3.98872C61.9442 3.332 61.7789 2.68502 61.4615 2.10492C61.144 1.52481 60.6842 1.02941 60.1225 0.662469Z" fill="#E42A2A" fill-opacity="0.83"/>
</svg>
