<svg width="52" height="56" viewBox="0 0 52 56" fill="none" xmlns="http://www.w3.org/2000/svg">
<path d="M49.9691 0.671236C49.5115 0.366315 48.9784 0.157284 48.4116 0.060554C47.8449 -0.0361763 47.2599 -0.0179728 46.7027 0.113736L17.8947 6.81124C16.8951 7.04343 16.0131 7.55633 15.3873 8.2693C14.7615 8.98227 14.4274 9.85489 14.4375 10.75V39C14.4375 39.8425 13.8074 40.57 12.8318 40.8537L12.8144 40.86L5.29881 43.11C2.42409 43.9412 0.562524 46.25 0.562524 48.9887C0.551996 50.1027 0.851564 51.2025 1.43593 52.1952C2.0203 53.1879 2.8723 54.0445 3.91999 54.6925C5.26914 55.5401 6.89331 55.9977 8.56088 56C9.4333 55.9987 10.2997 55.875 11.1263 55.6337L11.1812 55.6175L14.3378 54.625C15.7071 54.2296 16.8989 53.4736 17.7462 52.4628C18.5936 51.452 19.0538 50.2372 19.0625 48.9887V22.4887C19.0625 21.5775 19.7519 20.8375 20.82 20.605L20.8504 20.5975L46.0899 14.7675C46.1751 14.7484 46.2643 14.7465 46.3506 14.7618C46.4369 14.7771 46.518 14.8093 46.5877 14.8558C46.6574 14.9024 46.7139 14.9621 46.7529 15.0304C46.7918 15.0987 46.8122 15.1738 46.8125 15.25V32.9912C46.8125 33.835 46.1983 34.5387 45.2068 34.8262L45.1707 34.8375L37.8155 37.1012C36.3851 37.5081 35.1415 38.298 34.2646 39.3567C33.3876 40.4153 32.9229 41.6878 32.9375 42.99C32.9246 44.1073 33.223 45.2108 33.8074 46.2073C34.3918 47.2038 35.245 48.0639 36.295 48.715C37.323 49.3577 38.5148 49.7767 39.7697 49.9367C41.0246 50.0966 42.3056 49.9927 43.5042 49.6337L43.5562 49.6187L46.7128 48.625C48.0819 48.2299 49.2738 47.474 50.1211 46.4635C50.9684 45.4529 51.4287 44.2383 51.4375 42.99V3.24999C51.4407 2.75112 51.3096 2.25845 51.0548 1.8109C50.7999 1.36335 50.4283 0.973191 49.9691 0.671236Z" fill="#E42A2A" fill-opacity="0.83"/>
</svg>
