<svg width="219" height="219" viewBox="0 0 219 219" fill="none" xmlns="http://www.w3.org/2000/svg">
<path d="M177.249 41.7512C168.368 32.7823 157.802 25.6565 146.159 20.7833C134.516 15.91 122.024 13.3854 109.402 13.3543C96.7804 13.3232 84.2767 15.7864 72.6096 20.6022C60.9425 25.4181 50.3419 32.4918 41.4168 41.4168C32.4918 50.3419 25.4181 60.9425 20.6022 72.6096C15.7864 84.2767 13.3232 96.7804 13.3543 109.402C13.3854 122.024 15.91 134.516 20.7833 146.159C25.6565 157.802 32.7823 168.368 41.7512 177.249C50.6322 186.218 61.1978 193.344 72.8411 198.217C84.4843 203.09 96.9758 205.615 109.598 205.646C122.22 205.677 134.723 203.214 146.39 198.398C158.058 193.582 168.658 186.508 177.583 177.583C186.508 168.658 193.582 158.058 198.398 146.39C203.214 134.723 205.677 122.22 205.646 109.598C205.615 96.9758 203.09 84.4843 198.217 72.8411C193.344 61.1978 186.218 50.6322 177.249 41.7512ZM78.7031 88.9687C80.7335 88.9687 82.7182 89.5708 84.4064 90.6988C86.0946 91.8268 87.4103 93.4301 88.1873 95.3059C88.9643 97.1817 89.1676 99.2458 88.7715 101.237C88.3754 103.228 87.3977 105.058 85.962 106.493C84.5263 107.929 82.6972 108.907 80.7059 109.303C78.7145 109.699 76.6504 109.496 74.7746 108.719C72.8988 107.942 71.2956 106.626 70.1676 104.938C69.0396 103.249 68.4375 101.265 68.4375 99.2344C68.4341 97.8853 68.6973 96.5489 69.212 95.3019C69.7267 94.0549 70.4828 92.9219 71.4367 91.9679C72.3906 91.014 73.5236 90.258 74.7706 89.7433C76.0176 89.2286 77.3541 88.9654 78.7031 88.9687ZM68.5787 153.056C73.7115 135.818 90.0509 123.188 109.479 123.188C128.906 123.188 145.246 135.818 150.417 153.056C150.562 153.569 150.585 154.109 150.484 154.632C150.383 155.156 150.161 155.648 149.836 156.071C149.511 156.493 149.092 156.834 148.612 157.066C148.133 157.298 147.605 157.414 147.072 157.406H71.9235C71.3906 157.414 70.8632 157.298 70.3833 157.066C69.9034 156.834 69.4844 156.493 69.1595 156.071C68.8346 155.648 68.6129 155.156 68.5121 154.632C68.4112 154.109 68.434 153.569 68.5787 153.056ZM140.297 109.5C138.267 109.5 136.282 108.898 134.594 107.77C132.905 106.642 131.59 105.039 130.813 103.163C130.036 101.287 129.832 99.223 130.229 97.2316C130.625 95.2403 131.602 93.4112 133.038 91.9755C134.474 90.5398 136.303 89.5621 138.294 89.166C140.285 88.7699 142.35 88.9732 144.225 89.7502C146.101 90.5272 147.704 91.8429 148.832 93.5311C149.96 95.2193 150.563 97.204 150.563 99.2344C150.566 100.583 150.303 101.92 149.788 103.167C149.273 104.414 148.517 105.547 147.563 106.501C146.609 107.455 145.476 108.211 144.229 108.725C142.982 109.24 141.646 109.503 140.297 109.5Z" fill="#eb7373"/>
</svg>
