<svg width="76" height="48" viewBox="0 0 76 48" fill="none" xmlns="http://www.w3.org/2000/svg">
<path d="M73.4891 22.5896C70.175 9.85417 65.1875 3.05683 57.7891 1.20011C56.2339 0.812361 54.6207 0.618646 53 0.625031C50.8578 0.625031 48.9922 1.06862 47.0187 1.53878C44.6406 2.10589 41.9391 2.75003 38 2.75003C34.0609 2.75003 31.3578 2.10722 28.975 1.54011C27 1.06862 25.1359 0.625031 23 0.625031C21.3241 0.620091 19.6555 0.813189 18.0422 1.19878C10.6828 3.04753 5.69843 9.84222 2.33593 22.5816C-1.27969 36.2905 0.499995 44.9459 7.32656 46.954C8.26231 47.2344 9.24688 47.3789 10.2391 47.3817C14.9156 47.3817 18.6656 44.0707 21.2281 41.3599C24.1234 38.292 27.5125 36.7354 38 36.7354C47.3672 36.7354 51.2437 37.8152 54.5922 41.3599C56.6969 43.5885 58.6859 45.1478 60.6703 46.1292C63.3094 47.4335 65.9469 47.723 68.5078 46.9753C72.5422 45.8052 74.8547 42.712 75.3828 37.7793C75.7844 33.9968 75.1656 29.0283 73.4891 22.5896ZM30.5 21.875H25.5V26.125C25.5 26.6886 25.2366 27.2291 24.7678 27.6276C24.2989 28.0261 23.663 28.25 23 28.25C22.337 28.25 21.7011 28.0261 21.2322 27.6276C20.7634 27.2291 20.5 26.6886 20.5 26.125V21.875H15.5C14.837 21.875 14.2011 21.6511 13.7322 21.2526C13.2634 20.8541 13 20.3136 13 19.75C13 19.1864 13.2634 18.6459 13.7322 18.2474C14.2011 17.8489 14.837 17.625 15.5 17.625H20.5V13.375C20.5 12.8114 20.7634 12.2709 21.2322 11.8724C21.7011 11.4739 22.337 11.25 23 11.25C23.663 11.25 24.2989 11.4739 24.7678 11.8724C25.2366 12.2709 25.5 12.8114 25.5 13.375V17.625H30.5C31.163 17.625 31.7989 17.8489 32.2678 18.2474C32.7366 18.6459 33 19.1864 33 19.75C33 20.3136 32.7366 20.8541 32.2678 21.2526C31.7989 21.6511 31.163 21.875 30.5 21.875ZM43.625 22.4063C43.0069 22.4063 42.4027 22.2505 41.8888 21.9586C41.3749 21.6667 40.9744 21.2519 40.7379 20.7665C40.5013 20.2812 40.4395 19.7471 40.56 19.2318C40.6806 18.7166 40.9782 18.2433 41.4153 17.8718C41.8523 17.5003 42.4092 17.2473 43.0153 17.1448C43.6215 17.0423 44.2499 17.0949 44.8209 17.296C45.3919 17.497 45.88 17.8375 46.2233 18.2743C46.5667 18.7111 46.75 19.2247 46.75 19.75C46.75 20.4545 46.4208 21.1301 45.8347 21.6283C45.2487 22.1264 44.4538 22.4063 43.625 22.4063ZM50.5 28.25C49.8816 28.25 49.2771 28.0941 48.763 27.8019C48.249 27.5097 47.8484 27.0945 47.6121 26.6087C47.3758 26.123 47.3144 25.5886 47.4356 25.0731C47.5568 24.5577 47.8552 24.0844 48.2931 23.7132C48.7309 23.342 49.2884 23.0895 49.8951 22.9878C50.5018 22.886 51.1304 22.9396 51.7013 23.1416C52.2722 23.3437 52.7597 23.6852 53.1021 24.1229C53.4446 24.5606 53.6265 25.0748 53.625 25.6004C53.6229 26.3037 53.2928 26.9777 52.7069 27.4744C52.1211 27.9711 51.3274 28.25 50.5 28.25ZM50.5 16.5625C49.8819 16.5625 49.2777 16.4067 48.7638 16.1149C48.2499 15.823 47.8494 15.4081 47.6129 14.9228C47.3763 14.4374 47.3145 13.9033 47.435 13.3881C47.5556 12.8728 47.8532 12.3995 48.2903 12.028C48.7273 11.6565 49.2842 11.4036 49.8903 11.3011C50.4965 11.1986 51.1249 11.2512 51.6959 11.4522C52.2669 11.6533 52.755 11.9937 53.0983 12.4305C53.4417 12.8674 53.625 13.3809 53.625 13.9063C53.625 14.6108 53.2958 15.2864 52.7097 15.7845C52.1237 16.2827 51.3288 16.5625 50.5 16.5625ZM57.375 22.4063C56.7569 22.4063 56.1527 22.2505 55.6388 21.9586C55.1249 21.6667 54.7244 21.2519 54.4879 20.7665C54.2513 20.2812 54.1895 19.7471 54.31 19.2318C54.4306 18.7166 54.7282 18.2433 55.1653 17.8718C55.6023 17.5003 56.1592 17.2473 56.7653 17.1448C57.3715 17.0423 57.9999 17.0949 58.5709 17.296C59.1419 17.497 59.63 17.8375 59.9733 18.2743C60.3167 18.7111 60.5 19.2247 60.5 19.75C60.5 20.4545 60.1708 21.1301 59.5847 21.6283C58.9987 22.1264 58.2038 22.4063 57.375 22.4063Z" fill="#E42A2A" fill-opacity="0.83"/>
</svg>
